<svg width="112" height="44" viewBox="0 0 112 44" fill="none" xmlns="http://www.w3.org/2000/svg">
<path d="M3.76 32.48H3.68C3.09333 32.48 2.36 31.9467 1.48 30.88C0.6 29.7867 0.16 28.84 0.16 28.04C0.16 27.2133 0.933333 23.56 2.48 17.08C4.05333 10.6 4.84 6.50667 4.84 4.8C4.84 3.73333 5.22667 3.2 6 3.2C6.64 3.2 7.41333 3.84 8.32 5.12C9.22667 6.37333 9.68 7.57333 9.68 8.72C9.68 9.41333 9.33333 11.1867 8.64 14.04C10.8267 11.1333 12.88 8.70667 14.8 6.76C16.72 4.78667 18.0267 3.8 18.72 3.8C19.44 3.8 20.16 4.10667 20.88 4.72C21.6 5.30666 21.96 5.82666 21.96 6.28C21.96 6.70667 21.28 7.56 19.92 8.84C18.56 10.12 16.88 11.7467 14.88 13.72C12.88 15.6933 11.3333 17.5333 10.24 19.24C10.24 21.2933 11.4267 23.36 13.8 25.44C14.52 26.0533 15.48 26.6933 16.68 27.36C17.88 28 18.8133 28.56 19.48 29.04C20.1733 29.4933 20.52 29.96 20.52 30.44C20.52 31.8 19.56 32.48 17.64 32.48C15.72 32.48 13.6533 31.7067 11.44 30.16C9.22667 28.5867 7.57333 26.5067 6.48 23.92C5.78667 25.8933 5.36 27.3333 5.2 28.24C5.04 29.12 4.92 29.7067 4.84 30C4.78667 30.2933 4.73333 30.5333 4.68 30.72C4.62667 30.88 4.57333 31.0667 4.52 31.28C4.46667 31.4933 4.41333 31.6667 4.36 31.8C4.30667 31.9067 4.25333 32.0133 4.2 32.12C4.04 32.36 3.89333 32.48 3.76 32.48Z" fill="#1C3557"/>
<path d="M29.7025 28.44C31.1425 27.8 32.3958 26.5067 33.4625 24.56C34.5292 22.6133 35.0625 20.7867 35.0625 19.08C35.0625 17.3733 34.8225 16.2 34.3425 15.56C33.1958 16.2267 32.0492 17.6267 30.9025 19.76C29.7825 21.8933 29.2225 23.7733 29.2225 25.4C29.2225 27 29.3825 28.0133 29.7025 28.44ZM23.8625 25.8C23.8625 22.4667 24.8892 19.3067 26.9425 16.32C29.0225 13.3333 31.0758 11.84 33.1025 11.84C35.1292 11.84 36.8358 12.56 38.2225 14C39.6092 15.4133 40.3025 17.1333 40.3025 19.16C40.3025 21.16 39.8225 23.2 38.8625 25.28C37.9025 27.36 36.5558 29.0933 34.8225 30.48C33.0892 31.84 31.2358 32.52 29.2625 32.52C27.7958 32.52 26.5292 31.8667 25.4625 30.56C24.3958 29.2533 23.8625 27.6667 23.8625 25.8ZM59.3847 0.679999C60.0247 0.679999 60.8647 1.26667 61.9047 2.44C62.9447 3.58667 63.4647 4.66667 63.4647 5.68C63.4647 6.18667 62.998 8.29333 62.0647 12C61.1314 15.7067 60.5714 17.9467 60.3847 18.72C58.2514 27.92 56.6914 32.52 55.7047 32.52C55.1447 32.52 54.518 32.1867 53.8247 31.52C53.1314 30.8533 52.7847 30.2 52.7847 29.56C52.7847 29.4267 52.798 29.32 52.8247 29.24C50.158 31.4267 48.238 32.52 47.0647 32.52C45.918 32.52 44.798 31.9067 43.7047 30.68C42.638 29.4267 42.1047 28.2933 42.1047 27.28C42.1047 26.2667 42.238 25.1467 42.5047 23.92C42.798 22.6667 43.238 21.3467 43.8247 19.96C44.4114 18.5733 45.078 17.28 45.8247 16.08C46.598 14.8533 47.518 13.8533 48.5847 13.08C49.678 12.28 50.798 11.88 51.9447 11.88C53.6514 11.88 55.0514 12.7467 56.1447 14.48C57.5847 8.16 58.278 3.96 58.2247 1.88C58.2247 1.08 58.6114 0.679999 59.3847 0.679999ZM47.5847 27.44C48.2514 27.44 49.3714 26.8667 50.9447 25.72C52.5447 24.5733 53.7314 23.12 54.5047 21.36C54.478 21.1467 54.4647 20.68 54.4647 19.96C54.4647 19.24 54.2247 18.56 53.7447 17.92C53.2647 17.28 52.8247 16.96 52.4247 16.96C51.6247 16.96 50.8514 17.3867 50.1047 18.24C49.3847 19.0933 48.8114 20.1067 48.3847 21.28C47.478 23.76 47.0247 25.64 47.0247 26.92C47.0247 27.1333 47.0514 27.28 47.1047 27.36C47.1847 27.4133 47.3447 27.44 47.5847 27.44ZM67.7872 6.88C67.7872 6.18667 68.0939 5.48 68.7072 4.76C69.3472 4.01333 69.9605 3.64 70.5472 3.64C71.1605 3.64 71.8805 4.36 72.7072 5.8C73.5339 7.24 73.9472 8.29333 73.9472 8.96C73.9472 9.6 73.7339 10.0933 73.3072 10.44C72.8805 10.7867 72.4405 10.96 71.9872 10.96C71.2139 10.96 70.3205 10.4533 69.3072 9.44C68.2939 8.42667 67.7872 7.57333 67.7872 6.88ZM68.3872 11.88C69.3205 11.88 70.1472 12.4133 70.8672 13.48C71.6139 14.5467 71.9872 15.5733 71.9872 16.56C71.9872 17.0667 71.5205 18.8933 70.5872 22.04C69.6805 25.16 68.7739 28.12 67.8672 30.92C67.5472 31.96 66.8939 32.48 65.9072 32.48C65.3205 32.48 64.8005 32.2667 64.3472 31.84C63.9205 31.3867 63.7072 30.8133 63.7072 30.12C63.7072 29.4 64.0405 27.64 64.7072 24.84C65.4005 22.0133 65.9205 19.6133 66.2672 17.64C66.6405 15.64 66.9739 14.1867 67.2672 13.28C67.5872 12.3467 67.9605 11.88 68.3872 11.88ZM89.7378 8.68C89.6311 8.06667 89.4578 7.50667 89.2178 7C88.9778 6.49333 88.6845 6.24 88.3378 6.24C88.0178 6.24 87.6845 6.48 87.3378 6.96C87.0178 7.44 86.6978 8.22667 86.3778 9.32C85.8711 11.0267 85.3645 13.0133 84.8578 15.28C86.8845 15.1733 88.4045 15.12 89.4178 15.12C90.4578 15.12 91.2311 15.28 91.7378 15.6C92.2445 15.8933 92.4978 16.2533 92.4978 16.68C92.4978 17.5067 91.7511 18.1467 90.2578 18.6C88.7645 19.0533 86.6045 19.4933 83.7778 19.92C82.4445 25.4933 81.5111 28.9867 80.9778 30.4C80.4445 31.7867 79.8578 32.48 79.2178 32.48C78.7111 32.48 78.1111 32.0667 77.4178 31.24C76.7511 30.3867 76.4178 29.7467 76.4178 29.32C76.4178 28.8933 76.5111 28.3867 76.6978 27.8C77.5245 25.48 78.1511 23.24 78.5778 21.08C77.7778 21.2933 77.0578 21.4 76.4178 21.4C75.8045 21.4 75.1911 21.12 74.5778 20.56C73.9645 19.9733 73.6578 19.2667 73.6578 18.44C73.6578 17.48 75.5778 16.6533 79.4178 15.96C80.1911 10.84 81.2711 7.13333 82.6578 4.84C84.0445 2.52 86.0445 1.36 88.6578 1.36C89.9111 1.36 91.0578 1.97333 92.0978 3.2C93.1378 4.42666 93.6578 5.88 93.6578 7.56C93.6578 8.65333 93.4845 9.52 93.1378 10.16C92.7911 10.7733 92.3378 11.08 91.7778 11.08C91.2178 11.08 90.7645 10.8267 90.4178 10.32C90.0978 9.81333 89.8711 9.26667 89.7378 8.68ZM106.561 12.88C106.721 12.2133 107.161 11.88 107.881 11.88C108.601 11.88 109.334 12.3333 110.081 13.24C110.854 14.1467 111.241 15.1733 111.241 16.32C111.241 16.9867 111.001 18.04 110.521 19.48C110.041 20.92 109.694 21.9467 109.481 22.56C109.294 23.1733 109.014 24.0133 108.641 25.08C108.267 26.12 107.921 27.0933 107.601 28C107.307 28.88 106.894 30.0667 106.361 31.56C105.854 33.0533 105.387 34.44 104.961 35.72C104.134 38.12 103.121 39.9733 101.921 41.28C100.747 42.5867 99.214 43.24 97.3206 43.24C95.4273 43.24 93.734 42.7333 92.2406 41.72C90.7473 40.7333 90.0006 39.7333 90.0006 38.72C90.0006 38.1067 90.2673 37.4267 90.8006 36.68C91.3606 35.9333 91.8273 35.56 92.2006 35.56C92.6006 35.56 93.1073 35.8667 93.7206 36.48C94.3606 37.12 95.014 37.7467 95.6806 38.36C96.3473 39 96.934 39.32 97.4406 39.32C97.7873 39.32 98.0673 39.16 98.2806 38.84C98.5206 38.52 98.7073 38.2267 98.8406 37.96C99.0006 37.72 99.1606 37.3733 99.3206 36.92C99.4806 36.4933 99.6273 36.0933 99.7606 35.72C99.894 35.3467 100.054 34.8533 100.241 34.24C100.427 33.6267 100.587 33.08 100.721 32.6C101.174 31.16 101.561 29.88 101.881 28.76C101.001 29.9067 100.094 30.8267 99.1606 31.52C98.2273 32.1867 97.3606 32.52 96.5606 32.52C95.7873 32.52 94.814 31.9333 93.6406 30.76C92.494 29.56 91.9206 28.2533 91.9206 26.84C91.9206 25.4 92.2273 23.48 92.8406 21.08C93.4806 18.68 94.2673 16.5467 95.2006 14.68C96.134 12.8133 96.9606 11.88 97.6806 11.88C98.5073 11.88 99.2806 12.24 100.001 12.96C100.747 13.6533 101.121 14.3333 101.121 15C101.121 15.64 100.787 16.68 100.121 18.12C99.4806 19.56 98.8273 21.1333 98.1606 22.84C97.494 24.5467 97.1606 26 97.1606 27.2C97.1606 27.36 97.2273 27.44 97.3606 27.44C97.7073 27.44 98.4406 26.8 99.5606 25.52C100.681 24.2133 101.934 22.3733 103.321 20C104.734 17.6 105.814 15.2267 106.561 12.88Z" fill="#E1ECF9"/>
</svg>
