<svg width="69" height="90" viewBox="0 0 69 90" fill="none" xmlns="http://www.w3.org/2000/svg">
<path d="M7.44 89.44C6.24533 89.44 4.83733 88.4587 3.216 86.496C1.68 84.448 0.912 82.3573 0.912 80.224C0.912 78.0053 3.68533 66.144 9.232 44.64C14.7787 23.136 17.552 9.65333 17.552 4.19199C17.552 2.65599 17.7227 1.58933 18.064 0.991997C18.4053 0.394661 19.1733 0.095993 20.368 0.095993C21.648 0.095993 23.1413 1.41866 24.848 4.064C26.5547 6.70933 27.408 9.73866 27.408 13.152C27.408 16.5653 25.1893 26.6773 20.752 43.488C28.5173 32.9067 36.7093 23.1787 45.328 14.304C53.9467 5.344 59.408 0.863998 61.712 0.863998C63.4187 0.863998 64.9973 1.41866 66.448 2.52799C67.984 3.63733 68.752 4.74666 68.752 5.856C68.752 6.88 66.704 9.26933 62.608 13.024C58.5973 16.6933 53.1787 21.856 46.352 28.512C39.5253 35.168 33.68 41.824 28.816 48.48C28.816 51.9787 29.7547 55.776 31.632 59.872C34.6187 66.6987 40.7627 72.3733 50.064 76.896C54.0747 78.8587 57.1893 80.5227 59.408 81.888C61.712 83.2533 62.864 84.6613 62.864 86.112C62.864 88.3307 61.2 89.44 57.872 89.44C54.544 89.44 51.0453 88.7573 47.376 87.392C43.7067 85.9413 40.0373 83.936 36.368 81.376C32.6987 78.816 29.328 75.4453 26.256 71.264C23.2693 66.9973 21.2213 62.3467 20.112 57.312C17.4667 62.0053 14.992 68.192 12.688 75.872C9.872 84.9173 8.16533 89.44 7.568 89.44H7.44Z" fill="white"/>
</svg>
